/* XPM */
static char * thaipe_xpm[] = {
"32 32 419 2",
"  	c None",
". 	c #8DB0CE",
"+ 	c #6396BF",
"@ 	c #4985B7",
"# 	c #4181B5",
"$ 	c #417EB2",
"% 	c #417EB1",
"& 	c #4D83B0",
"* 	c #6290B6",
"= 	c #94B2CA",
"- 	c #70A1C8",
"; 	c #3D83BC",
"> 	c #3881BD",
", 	c #387DB6",
"' 	c #387CB5",
") 	c #387BB3",
"! 	c #3779B0",
"~ 	c #3778AE",
"{ 	c #3776AB",
"] 	c #3776AA",
"^ 	c #3775A9",
"/ 	c #4A7FAC",
"( 	c #709FC5",
"_ 	c #3A83BE",
": 	c #5795C7",
"< 	c #94B9DB",
"[ 	c #73A4CE",
"} 	c #3D80B7",
"| 	c #387CB4",
"1 	c #377AB2",
"2 	c #377AB0",
"3 	c #3777AC",
"4 	c #3774A7",
"5 	c #3773A5",
"6 	c #3C73A5",
"7 	c #4586BB",
"8 	c #4489C1",
"9 	c #A7C7E1",
"0 	c #F7F9FD",
"a 	c #E1E9F1",
"b 	c #4C89BC",
"c 	c #3779AF",
"d 	c #3778AD",
"e 	c #3873A5",
"f 	c #4B7CA4",
"g 	c #3982BE",
"h 	c #4389C1",
"i 	c #A6C6E1",
"j 	c #F6F9FC",
"k 	c #D6E4F0",
"l 	c #4A88BB",
"m 	c #3773A6",
"n 	c #366F9F",
"o 	c #366E9D",
"p 	c #376E9C",
"q 	c #4A8BC0",
"r 	c #79A7CD",
"s 	c #548EBD",
"t 	c #387AB0",
"u 	c #3773A4",
"v 	c #366D9C",
"w 	c #387FBA",
"x 	c #387DB7",
"y 	c #387BB4",
"z 	c #3775A8",
"A 	c #366FA0",
"B 	c #4981AF",
"C 	c #427BAA",
"D 	c #3772A4",
"E 	c #376B97",
"F 	c #77A3C8",
"G 	c #4586BC",
"H 	c #3882BE",
"I 	c #3B76A7",
"J 	c #3B76A6",
"K 	c #366E9E",
"L 	c #376B98",
"M 	c #376B96",
"N 	c #5681A3",
"O 	c #F5EEB8",
"P 	c #FFED60",
"Q 	c #FFE85B",
"R 	c #FFE659",
"S 	c #FDE55F",
"T 	c #5592C4",
"U 	c #3A83BF",
"V 	c #3882BD",
"W 	c #387FB9",
"X 	c #3779AE",
"Y 	c #366F9E",
"Z 	c #366C98",
"` 	c #376A94",
" .	c #5D85A7",
"..	c #F5EDB7",
"+.	c #FFEA5D",
"@.	c #FFE75A",
"#.	c #FFE354",
"$.	c #FDDD56",
"%.	c #669DC8",
"&.	c #3885C3",
"*.	c #3884C2",
"=.	c #387EB8",
"-.	c #387CB6",
";.	c #377AB1",
">.	c #3876AB",
",.	c #3A73A8",
"'.	c #3774A8",
").	c #3772A3",
"!.	c #376D9C",
"~.	c #386B9A",
"{.	c #366D9B",
"].	c #F5EBB5",
"^.	c #F18E47",
"/.	c #F9C04F",
"(.	c #ED7441",
"_.	c #FFDF50",
":.	c #FFDB4C",
"<.	c #FAD862",
"[.	c #8EB4D2",
"}.	c #3C86C1",
"|.	c #3883C0",
"1.	c #7D4E82",
"2.	c #CE123B",
"3.	c #D60D34",
"4.	c #516AA0",
"5.	c #784E80",
"6.	c #D01139",
"7.	c #804777",
"8.	c #874270",
"9.	c #DA0930",
"0.	c #D90A31",
"a.	c #DC0930",
"b.	c #D20E36",
"c.	c #B81E46",
"d.	c #AF345A",
"e.	c #E8553C",
"f.	c #ED763F",
"g.	c #FDD24A",
"h.	c #FFDA4A",
"i.	c #FED446",
"j.	c #F5DF9D",
"k.	c #77A5CA",
"l.	c #3885C2",
"m.	c #3B7FBA",
"n.	c #D30F37",
"o.	c #B7224D",
"p.	c #3B78AE",
"q.	c #3C75AB",
"r.	c #864170",
"s.	c #4D679A",
"t.	c #6B517F",
"u.	c #D70B33",
"v.	c #3B6A9A",
"w.	c #5D5582",
"x.	c #40648E",
"y.	c #CF173D",
"z.	c #FBCA4F",
"A.	c #FED54A",
"B.	c #FFD746",
"C.	c #FFD645",
"D.	c #FFD342",
"E.	c #F6DB8D",
"F.	c #508DBE",
"G.	c #3882BF",
"H.	c #3880BB",
"I.	c #A2315E",
"J.	c #DB0930",
"K.	c #3C72A7",
"L.	c #5B5B8A",
"M.	c #CD123A",
"N.	c #3B6998",
"O.	c #D10F36",
"P.	c #714770",
"Q.	c #526188",
"R.	c #FFDC4D",
"S.	c #FFD544",
"T.	c #FFD040",
"U.	c #F9CF58",
"V.	c #3F83BB",
"W.	c #3980BA",
"X.	c #AF2853",
"Y.	c #645482",
"Z.	c #376B9A",
"`.	c #3C6791",
" +	c #9A2F57",
".+	c #A82850",
"++	c #4E7BA0",
"@+	c #AD6C86",
"#+	c #E3454F",
"$+	c #FED94A",
"%+	c #F5A040",
"&+	c #FFD443",
"*+	c #FFD241",
"=+	c #FFCE3D",
"-+	c #FFCC3B",
";+	c #FCC83E",
">+	c #3880BC",
",+	c #D70C33",
"'+	c #D90A32",
")+	c #C9153E",
"!+	c #B02651",
"~+	c #3C79AC",
"{+	c #5F8DB4",
"]+	c #7AA0C0",
"^+	c #82A6C3",
"/+	c #9B7897",
"(+	c #DA0B32",
"_+	c #859CB8",
":+	c #82A1BB",
"<+	c #859BB4",
"[+	c #9D718E",
"}+	c #D61238",
"|+	c #C1C5AE",
"1+	c #E66D63",
"2+	c #ED753E",
"3+	c #F9B340",
"4+	c #FFCE3E",
"5+	c #FFCB39",
"6+	c #FFC937",
"7+	c #FEC636",
"8+	c #A82C58",
"9+	c #9DB6C6",
"0+	c #D0CFA2",
"a+	c #EFE598",
"b+	c #F8EE9B",
"c+	c #EFA77A",
"d+	c #DC1133",
"e+	c #F7EB99",
"f+	c #F7E694",
"g+	c #F5D48B",
"h+	c #DE1735",
"i+	c #F8C55E",
"j+	c #EA5E3B",
"k+	c #ED703C",
"l+	c #FDCC42",
"m+	c #FAB73C",
"n+	c #FFCB3A",
"o+	c #FFC734",
"p+	c #FFC532",
"q+	c #3F82B7",
"r+	c #387EB9",
"s+	c #3C78B1",
"t+	c #AC2954",
"u+	c #F2E287",
"v+	c #FDEB69",
"w+	c #FEEC60",
"x+	c #F1984E",
"y+	c #DC0B30",
"z+	c #FDDE5B",
"A+	c #FFE152",
"B+	c #E43D37",
"C+	c #EA5D3B",
"D+	c #EF7B3C",
"E+	c #ED703A",
"F+	c #FDC63D",
"G+	c #F9AB39",
"H+	c #FFC633",
"I+	c #FCC235",
"J+	c #578FBE",
"K+	c #D20F36",
"L+	c #AF2752",
"M+	c #6995BB",
"N+	c #FDEB61",
"O+	c #F29D4F",
"P+	c #FEE558",
"Q+	c #FFE658",
"R+	c #FEE153",
"S+	c #FDD34E",
"T+	c #EE753E",
"U+	c #F59D3E",
"V+	c #ED6D39",
"W+	c #DD1230",
"X+	c #FFCD3C",
"Y+	c #EF7735",
"Z+	c #FDBD32",
"`+	c #FFC431",
" @	c #FFBF2C",
".@	c #FAC244",
"+@	c #85AACA",
"@@	c #3A76AC",
"#@	c #B5224C",
"$@	c #A3B3CB",
"%@	c #FCDA5C",
"&@	c #EE8048",
"*@	c #FEE255",
"=@	c #FDD650",
"-@	c #F9B846",
";@	c #F6A441",
">@	c #FDC840",
",@	c #EE6E37",
"'@	c #FDC134",
")@	c #E64130",
"!@	c #FBB031",
"~@	c #F89F2C",
"{@	c #FAA629",
"]@	c #F7D280",
"^@	c #9DBAD2",
"/@	c #3B7CB2",
"(@	c #387BB2",
"_@	c #804676",
":@	c #D60C33",
"<@	c #556191",
"[@	c #BC819C",
"}@	c #F08C4B",
"|@	c #F9C556",
"1@	c #E22F37",
"2@	c #EE7D43",
"3@	c #FDD850",
"4@	c #EA5F3B",
"5@	c #DD0F30",
"6@	c #E74F37",
"7@	c #FECE42",
"8@	c #E74834",
"9@	c #FAB139",
"0@	c #DF1E31",
"a@	c #E12530",
"b@	c #E6402F",
"c@	c #E63D2E",
"d@	c #E01E2F",
"e@	c #FCBA30",
"f@	c #F4DEA8",
"g@	c #5F91BA",
"h@	c #ABC1D4",
"i@	c #FDEE7E",
"j@	c #FFEB5E",
"k@	c #FFE456",
"l@	c #FFE253",
"m@	c #FFDE4F",
"n@	c #FFD747",
"o@	c #FFD03F",
"p@	c #FFCC3C",
"q@	c #FFC12E",
"r@	c #FFBC29",
"s@	c #FFBA27",
"t@	c #FAC75B",
"u@	c #4A82B0",
"v@	c #3877AB",
"w@	c #3774A6",
"x@	c #AAC0D4",
"y@	c #FDEE7D",
"z@	c #FFEC5F",
"A@	c #FFE255",
"B@	c #FFDF51",
"C@	c #FFD848",
"D@	c #FFD444",
"E@	c #FFCF3F",
"F@	c #FFC735",
"G@	c #FFBC2A",
"H@	c #FFBB28",
"I@	c #FDBA32",
"J@	c #447AA8",
"K@	c #4379A7",
"L@	c #FFE95C",
"M@	c #FFE558",
"N@	c #FFE355",
"O@	c #FED84B",
"P@	c #FCD149",
"Q@	c #FBCE47",
"R@	c #FBCD46",
"S@	c #FBC840",
"T@	c #FBC63E",
"U@	c #FBC037",
"V@	c #FAC448",
"W@	c #FFE557",
"X@	c #FFDD4E",
"Y@	c #FDD44C",
"Z@	c #FCD14E",
"`@	c #FFC836",
" #	c #FFC22F",
".#	c #FFC02D",
"+#	c #FFE153",
"@#	c #FFE052",
"##	c #FFC636",
"$#	c #FFCF5C",
"%#	c #FFD573",
"&#	c #FFC33E",
"*#	c #FEBD2D",
"=#	c #FFDB4D",
"-#	c #FFD949",
";#	c #FFD545",
">#	c #FFD140",
",#	c #FFCB48",
"'#	c #FFF7E4",
")#	c #FFFCF6",
"!#	c #FFE09D",
"~#	c #FFBA2E",
"{#	c #FDBE2F",
"]#	c #FFD748",
"^#	c #FFD646",
"/#	c #FFCF3E",
"(#	c #FFCA38",
"_#	c #FFC844",
":#	c #FFF2D7",
"<#	c #FFF9EC",
"[#	c #FFDB94",
"}#	c #FFB92D",
"|#	c #FAC54D",
"1#	c #FDD54E",
"2#	c #FFBD2D",
"3#	c #FFC858",
"4#	c #FFD174",
"5#	c #FFBF3E",
"6#	c #FCBD3C",
"7#	c #FAD66A",
"8#	c #FECD3F",
"9#	c #FFC330",
"0#	c #FFBD2A",
"a#	c #FFB724",
"b#	c #FFB521",
"c#	c #FFB526",
"d#	c #FBC457",
"e#	c #F7E09E",
"f#	c #F8D781",
"g#	c #FAC349",
"h#	c #FCC134",
"i#	c #FEBE2C",
"j#	c #FBBE3F",
"k#	c #F7CF79",
"l#	c #F5D795",
"                      . + @ # $ % % & * =                       ",
"                  - ; > > , ' ) ! ~ { ] ^ /                     ",
"                ( _ : < [ } | 1 2 ~ 3 4 5 5 6                   ",
"                7 8 9 0 a b 2 c d 3 { 5 5 5 e f                 ",
"                g h i j k l c ~ { { m 5 5 n o p                 ",
"                > > q r s t c c d 4 5 u n v v v                 ",
"                w x ' y 2 c d d z 5 u A v v v v                 ",
"                              B C 5 D v v v v E                 ",
"      F G H H H x ' ) c c c d I J 5 K v v L M N O P Q R S       ",
"    T U H V V W ' ) c c X ~ 5 5 5 Y v v Z ` `  ...+.@.#.#.$.    ",
"  %.&.*.> w W =.-.;.c >.,.'.5 D ).!.~.{.E ` `  .].^./.(._.:.<.  ",
"[.}.|.1.2.3.4.5.6.7.8.9.9.0.a.a.b.a.a.c.` ` ` d.a.e.a.f.g.h.i.j.",
"k.l.|.m.n.o.' p.a.q.r.s.4 t.u.v.v w.a.0.x.` ` y.a.z.a.A.B.C.D.E.",
"F.G.> H.a.I.' | J.3 K.z 5 L.M.v v N.a.O.P.` Q.J.a.R.a.C.S.D.T.U.",
"V.> > W.a.X.1 ~ a.c ] 5 5 Y.a.Z.{.`.a. +.+++@+#+a.$+%+&+*+=+-+;+",
">+>+w -.,+'+)+!+a.~+{+]+^+/+(+_+:+<+a.[+}+|+1+2+a.B.3+4+-+5+6+7+",
">+>+=.' a.8+c q.a.9+0+a+b+c+d+e+b+f+a.g+h+i+j+k+a.l+m+-+n+o+p+p+",
"q+r+-.s+a.t+c c a.u+v+w+P x+y+z+Q R a.A+B+C+D+E+a.F+G+n+H+p+p+I+",
"J+' ' ;.K+L+X M+a.N+P P P O+a.P+Q+R+a.S+T+a.U+V+W+X+Y+Z+p+`+ @.@",
"+@' ) @@a.#@{ $@a.%@P P P &@a.*@#.=@a.-@;@a.>@,@a.'@)@!@`+~@{@]@",
"^@/@(@_@a.:@<@[@a.}@P P |@1@a.2@3@4@5@6@7@8@9@0@a.a@a.b@c@d@e@f@",
"  g@c d 3 { 4 h@i@P P j@@.k@l@m@R.:.n@&+o@p@-+o+p+p+q@r@r@s@t@  ",
"    u@v@{ w@m x@y@z@@.R A@A+B@:.C@C.D@E@p@-+F@p+p+q@G@r@H@I@    ",
"      * J@K@K@  +.L@M@N@B@B@:.O@P@Q@R@S@S@S@S@T@U@U@U@U@V@      ",
"                W@W@#.A+X@:.C@Y@Z@                              ",
"                #.l@m@X@:.C@&+T.X+-+`@p+p+ #.#U@                ",
"                +#@#:.:.C@S.T.X+-+-+##$#%#&#r@*#                ",
"                =#:.-#;#S.>#-+-+`@H+,#'#)#!#~#{#                ",
"                <.]#^#&+T./#(#`@p+p+_#:#<#[#}#|#                ",
"                  1#*+E@X+6+p+p+p+ #2#3#4#5#6#                  ",
"                    7#8#6+p+p+9# @0#a#b#c#d#                    ",
"                      e#f#g#h#i#r@r@j#k#l#                      "};
